<svg width="414" height="896" viewBox="0 0 414 896" fill="none" xmlns="http://www.w3.org/2000/svg">
<g clip-path="url(#clip0)">
<rect width="414" height="896" fill="white"/>
<rect width="414" height="896" fill="#0C9CB4"/>
<path d="M0 312C0 312 414 226 414 260C414 294 456 630 414 612C372 594 0 659 0 659V312Z" fill="#1D9FB5"/>
<path d="M0 595C0 595 414 680.5 414 812.5C414 944.5 414 896 414 896H0V595Z" fill="#1098AE"/>
<path d="M0 18.5C0 18.5 414 78 414 90.5C414 103 414 283 414 190C414 97 0 190 0 190V18.5Z" fill="#0C98AF"/>
<path d="M0 359.535C0 359.535 375.963 498.179 408.527 303.517C441.091 108.855 408.527 430.958 408.527 430.958L0 564V359.535Z" fill="#119CB3"/>
<path d="M111.684 441V400.4H138.016V406.432H117.948V417.684H135.406V423.716H117.948V441H111.684ZM173.371 441L169.543 430.908H152.549L148.721 441H142.341L158.059 400.4H164.439L180.041 441H173.371ZM157.943 416.756L154.869 424.876H167.281L164.091 416.524C163.588 415.171 163.085 413.721 162.583 412.174C162.08 410.589 161.577 409.003 161.075 407.418C160.533 409.042 159.992 410.666 159.451 412.29C158.948 413.914 158.445 415.403 157.943 416.756ZM212.474 434.968V441H187.186V400.4H193.45V434.968H212.474ZM223.415 428.762C225 431.043 226.643 432.822 228.345 434.098C230.085 435.335 232.327 435.954 235.073 435.954C236.387 435.954 237.644 435.741 238.843 435.316C240.041 434.891 241.027 434.272 241.801 433.46C242.574 432.648 242.961 431.681 242.961 430.56C242.961 428.627 242.129 427.119 240.467 426.036C238.843 424.953 236.542 424.122 233.565 423.542C229.775 422.769 226.759 421.435 224.517 419.54C222.274 417.607 221.153 414.823 221.153 411.188C221.153 408.868 221.791 406.857 223.067 405.156C224.381 403.455 226.102 402.14 228.229 401.212C230.355 400.284 232.656 399.82 235.131 399.82C238.34 399.82 241.105 400.439 243.425 401.676C245.745 402.913 247.562 404.673 248.877 406.954L244.469 411.304C243.425 409.564 242.11 408.153 240.525 407.07C238.939 405.987 237.083 405.446 234.957 405.446C232.83 405.446 231.032 405.949 229.563 406.954C228.132 407.921 227.417 409.274 227.417 411.014C227.417 412.986 228.171 414.436 229.679 415.364C231.225 416.253 233.255 416.969 235.769 417.51C238.05 417.974 240.215 418.689 242.265 419.656C244.314 420.623 245.977 421.879 247.253 423.426C248.567 424.934 249.225 426.771 249.225 428.936C249.225 432.803 247.91 435.877 245.281 438.158C242.651 440.439 239.036 441.58 234.435 441.58C231.303 441.58 228.441 440.961 225.851 439.724C223.299 438.487 221.056 436.476 219.123 433.692L223.415 428.762ZM258.1 400.4H283.678V406.432H264.364V417.162H280.488V423.194H264.364V434.968H283.678V441H258.1V400.4ZM296.743 417.22C295.776 417.22 294.771 416.969 293.727 416.466C292.683 415.925 291.968 415.403 291.581 414.9L293.495 411.768C293.92 412.039 294.384 412.309 294.887 412.58C295.428 412.812 295.95 412.928 296.453 412.928C297.652 412.928 298.541 412.522 299.121 411.71C299.701 410.898 300.068 409.68 300.223 408.056C299.102 408.945 297.864 409.39 296.511 409.39C294.539 409.39 292.973 408.791 291.813 407.592C290.653 406.393 290.073 404.963 290.073 403.3C290.073 401.831 290.402 400.535 291.059 399.414C291.755 398.254 292.683 397.365 293.843 396.746C295.003 396.089 296.26 395.76 297.613 395.76C299.237 395.76 300.629 396.185 301.789 397.036C302.949 397.848 303.819 398.931 304.399 400.284C305.018 401.599 305.327 403.01 305.327 404.518C305.327 406.877 304.979 409.023 304.283 410.956C303.587 412.889 302.601 414.417 301.325 415.538C300.049 416.659 298.522 417.22 296.743 417.22ZM297.555 405.794C298.522 405.794 299.295 405.485 299.875 404.866C300.455 404.247 300.745 403.532 300.745 402.72C300.745 401.792 300.455 401.019 299.875 400.4C299.295 399.781 298.56 399.472 297.671 399.472C296.859 399.472 296.144 399.781 295.525 400.4C294.945 400.98 294.655 401.734 294.655 402.662C294.655 403.513 294.926 404.247 295.467 404.866C296.008 405.485 296.704 405.794 297.555 405.794Z" fill="#FEFFF7"/>
<line x1="106" y1="451.5" x2="308" y2="451.5" stroke="white"/>
<path d="M138.548 463.8H150.014V466.504H141.356V471.314H148.584V474.018H141.356V479.296H150.014V482H138.548V463.8ZM168.923 463.774V475.006C168.923 476.375 168.602 477.606 167.961 478.698C167.337 479.773 166.47 480.622 165.361 481.246C164.269 481.853 163.012 482.156 161.591 482.156C160.187 482.156 158.93 481.853 157.821 481.246C156.711 480.622 155.836 479.773 155.195 478.698C154.571 477.606 154.259 476.375 154.259 475.006V463.774H157.067V474.772C157.067 475.673 157.275 476.479 157.691 477.19C158.124 477.901 158.687 478.455 159.381 478.854C160.074 479.253 160.811 479.452 161.591 479.452C162.423 479.452 163.194 479.253 163.905 478.854C164.615 478.455 165.179 477.901 165.595 477.19C166.028 476.479 166.245 475.673 166.245 474.772V463.774H168.923ZM187.259 469.598C187.259 470.69 186.929 471.704 186.271 472.64C185.629 473.576 184.789 474.269 183.749 474.72L187.987 482.026L184.581 482L180.733 475.162H176.573V482H173.765V463.8H181.513C182.466 463.8 183.376 464.034 184.243 464.502C185.127 464.97 185.846 465.637 186.401 466.504C186.973 467.371 187.259 468.402 187.259 469.598ZM181.045 466.504H176.573V472.458H181.773C182.605 472.458 183.246 472.163 183.697 471.574C184.165 470.985 184.399 470.317 184.399 469.572C184.399 468.619 184.069 467.873 183.411 467.336C182.752 466.781 181.963 466.504 181.045 466.504ZM208.125 472.9C208.125 474.217 207.908 475.448 207.475 476.592C207.042 477.719 206.418 478.707 205.603 479.556C204.806 480.405 203.861 481.073 202.769 481.558C201.694 482.026 200.507 482.26 199.207 482.26C197.907 482.26 196.711 482.026 195.619 481.558C194.527 481.073 193.582 480.405 192.785 479.556C191.988 478.707 191.372 477.719 190.939 476.592C190.506 475.448 190.289 474.217 190.289 472.9C190.289 471.583 190.506 470.361 190.939 469.234C191.372 468.09 191.988 467.093 192.785 466.244C193.582 465.395 194.527 464.736 195.619 464.268C196.711 463.783 197.907 463.54 199.207 463.54C200.507 463.54 201.694 463.783 202.769 464.268C203.861 464.736 204.806 465.395 205.603 466.244C206.418 467.093 207.042 468.09 207.475 469.234C207.908 470.361 208.125 471.583 208.125 472.9ZM205.265 472.9C205.265 471.635 205.005 470.508 204.485 469.52C203.965 468.515 203.246 467.726 202.327 467.154C201.426 466.565 200.386 466.27 199.207 466.27C198.011 466.27 196.954 466.565 196.035 467.154C195.134 467.726 194.423 468.515 193.903 469.52C193.4 470.508 193.149 471.635 193.149 472.9C193.149 474.165 193.4 475.301 193.903 476.306C194.423 477.294 195.134 478.083 196.035 478.672C196.954 479.244 198.011 479.53 199.207 479.53C200.386 479.53 201.426 479.244 202.327 478.672C203.246 478.083 203.965 477.285 204.485 476.28C205.005 475.275 205.265 474.148 205.265 472.9ZM230.082 479.296V482H219.084L218.226 479.868L223.79 473.602C224.501 472.805 225.151 472.007 225.74 471.21C226.329 470.413 226.624 469.598 226.624 468.766C226.624 467.899 226.373 467.249 225.87 466.816C225.367 466.365 224.709 466.14 223.894 466.14C223.495 466.14 223.053 466.261 222.568 466.504C222.083 466.747 221.623 467.128 221.19 467.648C220.757 468.168 220.41 468.853 220.15 469.702L217.992 468.35C218.46 466.738 219.266 465.533 220.41 464.736C221.571 463.939 222.845 463.54 224.232 463.54C225.22 463.54 226.113 463.748 226.91 464.164C227.707 464.563 228.34 465.135 228.808 465.88C229.276 466.625 229.51 467.518 229.51 468.558C229.51 469.754 229.146 470.941 228.418 472.12C227.707 473.281 226.832 474.434 225.792 475.578L222.386 479.296H230.082ZM238.788 482.26C237.332 482.26 236.101 481.861 235.096 481.064C234.108 480.249 233.363 479.14 232.86 477.736C232.357 476.332 232.106 474.72 232.106 472.9C232.106 471.08 232.357 469.468 232.86 468.064C233.363 466.66 234.108 465.559 235.096 464.762C236.101 463.947 237.332 463.54 238.788 463.54C240.261 463.54 241.492 463.947 242.48 464.762C243.468 465.559 244.213 466.66 244.716 468.064C245.236 469.468 245.496 471.08 245.496 472.9C245.496 474.72 245.236 476.332 244.716 477.736C244.213 479.14 243.468 480.249 242.48 481.064C241.492 481.861 240.261 482.26 238.788 482.26ZM238.788 479.712C240.036 479.712 241.007 479.123 241.7 477.944C242.411 476.765 242.766 475.084 242.766 472.9C242.766 470.716 242.411 469.035 241.7 467.856C241.007 466.677 240.036 466.088 238.788 466.088C237.54 466.088 236.561 466.677 235.85 467.856C235.157 469.035 234.81 470.716 234.81 472.9C234.81 475.084 235.157 476.765 235.85 477.944C236.561 479.123 237.54 479.712 238.788 479.712ZM260.119 479.296V482H249.121L248.263 479.868L253.827 473.602C254.538 472.805 255.188 472.007 255.777 471.21C256.366 470.413 256.661 469.598 256.661 468.766C256.661 467.899 256.41 467.249 255.907 466.816C255.404 466.365 254.746 466.14 253.931 466.14C253.532 466.14 253.09 466.261 252.605 466.504C252.12 466.747 251.66 467.128 251.227 467.648C250.794 468.168 250.447 468.853 250.187 469.702L248.029 468.35C248.497 466.738 249.303 465.533 250.447 464.736C251.608 463.939 252.882 463.54 254.269 463.54C255.257 463.54 256.15 463.748 256.947 464.164C257.744 464.563 258.377 465.135 258.845 465.88C259.313 466.625 259.547 467.518 259.547 468.558C259.547 469.754 259.183 470.941 258.455 472.12C257.744 473.281 256.869 474.434 255.829 475.578L252.423 479.296H260.119ZM268.825 482.26C267.369 482.26 266.139 481.861 265.133 481.064C264.145 480.249 263.4 479.14 262.897 477.736C262.395 476.332 262.143 474.72 262.143 472.9C262.143 471.08 262.395 469.468 262.897 468.064C263.4 466.66 264.145 465.559 265.133 464.762C266.139 463.947 267.369 463.54 268.825 463.54C270.299 463.54 271.529 463.947 272.517 464.762C273.505 465.559 274.251 466.66 274.753 468.064C275.273 469.468 275.533 471.08 275.533 472.9C275.533 474.72 275.273 476.332 274.753 477.736C274.251 479.14 273.505 480.249 272.517 481.064C271.529 481.861 270.299 482.26 268.825 482.26ZM268.825 479.712C270.073 479.712 271.044 479.123 271.737 477.944C272.448 476.765 272.803 475.084 272.803 472.9C272.803 470.716 272.448 469.035 271.737 467.856C271.044 466.677 270.073 466.088 268.825 466.088C267.577 466.088 266.598 466.677 265.887 467.856C265.194 469.035 264.847 470.716 264.847 472.9C264.847 475.084 265.194 476.765 265.887 477.944C266.598 479.123 267.577 479.712 268.825 479.712Z" fill="#F7E974"/>
</g>
<defs>
<clipPath id="clip0">
<rect width="414" height="896" fill="white"/>
</clipPath>
</defs>
</svg>
