<svg width="240" height="120" viewBox="0 0 240 120" fill="none" xmlns="http://www.w3.org/2000/svg">
<path d="M24.684 82V41.4H51.016V47.432H30.948V58.684H48.406V64.716H30.948V82H24.684ZM86.3706 82L82.5426 71.908H65.5486L61.7206 82H55.3406L71.0586 41.4H77.4386L93.0406 82H86.3706ZM70.9426 57.756L67.8686 65.876H80.2806L77.0906 57.524C76.588 56.1707 76.0853 54.7207 75.5826 53.174C75.08 51.5887 74.5773 50.0033 74.0746 48.418C73.5333 50.042 72.992 51.666 72.4506 53.29C71.948 54.914 71.4453 56.4027 70.9426 57.756ZM125.474 75.968V82H100.186V41.4H106.45V75.968H125.474ZM136.415 69.762C138 72.0433 139.643 73.822 141.345 75.098C143.085 76.3353 145.327 76.954 148.073 76.954C149.387 76.954 150.644 76.7413 151.843 76.316C153.041 75.8907 154.027 75.272 154.801 74.46C155.574 73.648 155.961 72.6813 155.961 71.56C155.961 69.6267 155.129 68.1187 153.467 67.036C151.843 65.9533 149.542 65.122 146.565 64.542C142.775 63.7687 139.759 62.4347 137.517 60.54C135.274 58.6067 134.153 55.8227 134.153 52.188C134.153 49.868 134.791 47.8573 136.067 46.156C137.381 44.4547 139.102 43.14 141.229 42.212C143.355 41.284 145.656 40.82 148.131 40.82C151.34 40.82 154.105 41.4387 156.425 42.676C158.745 43.9133 160.562 45.6727 161.877 47.954L157.469 52.304C156.425 50.564 155.11 49.1527 153.525 48.07C151.939 46.9873 150.083 46.446 147.957 46.446C145.83 46.446 144.032 46.9487 142.563 47.954C141.132 48.9207 140.417 50.274 140.417 52.014C140.417 53.986 141.171 55.436 142.679 56.364C144.225 57.2533 146.255 57.9687 148.769 58.51C151.05 58.974 153.215 59.6893 155.265 60.656C157.314 61.6227 158.977 62.8793 160.253 64.426C161.567 65.934 162.225 67.7707 162.225 69.936C162.225 73.8027 160.91 76.8767 158.281 79.158C155.651 81.4393 152.036 82.58 147.435 82.58C144.303 82.58 141.441 81.9613 138.851 80.724C136.299 79.4867 134.056 77.476 132.123 74.692L136.415 69.762ZM171.1 41.4H196.678V47.432H177.364V58.162H193.488V64.194H177.364V75.968H196.678V82H171.1V41.4ZM209.743 62.28C208.776 62.28 207.771 62.0287 206.727 61.526C205.683 60.9847 204.968 60.4627 204.581 59.96L206.495 56.828C206.92 57.0987 207.384 57.3693 207.887 57.64C208.428 57.872 208.95 57.988 209.453 57.988C210.652 57.988 211.541 57.582 212.121 56.77C212.701 55.958 213.068 54.74 213.223 53.116C212.102 54.0053 210.864 54.45 209.511 54.45C207.539 54.45 205.973 53.8507 204.813 52.652C203.653 51.4533 203.073 50.0227 203.073 48.36C203.073 46.8907 203.402 45.5953 204.059 44.474C204.755 43.314 205.683 42.4247 206.843 41.806C208.003 41.1487 209.26 40.82 210.613 40.82C212.237 40.82 213.629 41.2453 214.789 42.096C215.949 42.908 216.819 43.9907 217.399 45.344C218.018 46.6587 218.327 48.07 218.327 49.578C218.327 51.9367 217.979 54.0827 217.283 56.016C216.587 57.9493 215.601 59.4767 214.325 60.598C213.049 61.7193 211.522 62.28 209.743 62.28ZM210.555 50.854C211.522 50.854 212.295 50.5447 212.875 49.926C213.455 49.3073 213.745 48.592 213.745 47.78C213.745 46.852 213.455 46.0787 212.875 45.46C212.295 44.8413 211.56 44.532 210.671 44.532C209.859 44.532 209.144 44.8413 208.525 45.46C207.945 46.04 207.655 46.794 207.655 47.722C207.655 48.5727 207.926 49.3073 208.467 49.926C209.008 50.5447 209.704 50.854 210.555 50.854Z" fill="white"/>
</svg>
