<svg xmlns="http://www.w3.org/2000/svg" data-name="Layer 1" viewBox="0 0 512 512"><path fill="#b28b6a" d="M474.5,478.47833H37.5a30,30,0,0,1-30-30v-242L238.40139,39.22581a30,30,0,0,1,35.19722,0L504.5,206.47833v242A30,30,0,0,1,474.5,478.47833Z"/><path fill="#a17855" d="M273.59863,39.22577a30.00021,30.00021,0,0,0-35.19726,0L233.5,42.77606,431.80358,186.41653A67,67,0,0,1,459.5,240.67728V448.47833a30,30,0,0,1-30,30h45a30,30,0,0,0,30-30v-242Z"/><path fill="#fff" d="M157.5,146.47833h197a30,30,0,0,1,30,30v287a0,0,0,0,1,0,0h-257a0,0,0,0,1,0,0v-287A30,30,0,0,1,157.5,146.47833Z"/><path fill="#e1e1e3" d="M354.5,146.47833h-45a30,30,0,0,1,30,30v287h45v-287A30,30,0,0,0,354.5,146.47833Z"/><path fill="#eb304a" d="M287.0658,389.42921H224.9342a28.4546,28.4546,0,0,1-28.45461-28.4546v-.00006A37.295,37.295,0,0,1,216.23385,328.062L256,306.86872,295.76615,328.062a37.295,37.295,0,0,1,19.75426,32.91256v.00006A28.4546,28.4546,0,0,1,287.0658,389.42921Z"/><path fill="#e4222e" d="M295.76611,328.062,256,306.86871l-15,7.99421,24.76611,13.199a37.29492,37.29492,0,0,1,19.7544,32.9126v.00006a28.45472,28.45472,0,0,1-28.45459,28.45459h30a28.45472,28.45472,0,0,0,28.45459-28.45459v-.00006A37.29492,37.29492,0,0,0,295.76611,328.062Z"/><path fill="#fbbf7d" d="M240.2845,293.187H272.3608a2.22281,2.22281,0,0,1,2.22281,2.22281v16.25786a18.26094,18.26094,0,0,1-18.26094,18.26094h0a18.26094,18.26094,0,0,1-18.26094-18.26094V295.40985a2.22281,2.22281,0,0,1,2.22281-2.22281Z"/><path fill="#fdd8ae" d="M291.92993,256.46v12.46a35.92993,35.92993,0,1,1-71.85986,0V256.46a35.92993,35.92993,0,0,1,71.85986,0Z"/><path fill="#fbbf7d" d="M281.3999,231.05A35.94046,35.94046,0,0,0,248.5,221.3197,35.94145,35.94145,0,0,1,276.92993,256.46v12.46A35.94433,35.94433,0,0,1,248.5,304.05988,35.93583,35.93583,0,0,0,291.92993,268.92V256.46A35.79806,35.79806,0,0,0,281.3999,231.05Z"/><path fill="#787681" d="M291.92993,256.46v3.51a52.69815,52.69815,0,0,1-31.46,2.09,49.59472,49.59472,0,0,1-13.59985-5.73,45.1532,45.1532,0,0,1-26.8,4.2v-4.07a35.92993,35.92993,0,0,1,71.85986,0Z"/><path fill="#57565c" d="M281.3999,231.05a35.91709,35.91709,0,0,0-43.06616-5.87354c.88135-.06469,1.76831-.10888,2.66626-.10888a35.93468,35.93468,0,0,1,35.92993,35.93v2.3916a55.71578,55.71578,0,0,0,15-3.41919v-3.51A35.79806,35.79806,0,0,0,281.3999,231.05Z"/><path fill="#fddd5a" d="M504.5,206.48v242a30.02471,30.02471,0,0,1-30,30H37.5a30.021,30.021,0,0,1-30-30v-242L166.17993,321.42l72.22,52.31a29.99031,29.99031,0,0,0,35.2002,0l73.97-53.58Z"/><path fill="#fed030" d="M504.5 206.48v242a29.879 29.879 0 0 1-7.77 20.13l-1.12988-.25-146.25-146.25-1.78-1.96zM166.17993 321.42l-.58.69L19.35 468.36l-2.19007 2.16A29.87324 29.87324 0 0 1 7.5 448.48v-242z"/><path fill="#eab234" d="M504.5,206.48v242c0,.52-.01,1.03-.04,1.54-.02.45-.05.89-.1001,1.33a7.939,7.939,0,0,1-.09985.84,8.22758,8.22758,0,0,1-.11011.85c-.05981.4-.11987.79-.21,1.18a6.39938,6.39938,0,0,1-.15991.76,6.8043,6.8043,0,0,1-.21.89c-.09009.39-.2.78-.32007,1.17-.08008.28-.15991.56-.26.84-.06006.19-.11987.37-.18994.55-.07007.22-.15015.44-.24.65a9.46114,9.46114,0,0,1-.3501.88,3.451,3.451,0,0,1-.13989.34,9.1787,9.1787,0,0,1-.38013.85c-.09985.22-.2.44-.31982.66-.04.09-.08008.18-.13013.27-.17993.36-.36987.71-.57007,1.06,0,.01,0,.01-.01.02-.21.37-.41992.73-.63989,1.08-.05.08-.1001.16-.1499.23q-.3003.495-.63013.96a28.49931,28.49931,0,0,1-2.51,3.18c-.01.01-.02.03-.03.04-.32983.37-.66992.73-1.03,1.07q-.53979.54-1.10986,1.05c-.38013.35-.76.68-1.16016,1-.35986.3-.73.59-1.10986.86-.3501.26-.71.51-1.07007.75-.37988.27-.77.51-1.16992.75-.29.19-.59009.36-.90015.53-.24.14-.48.27-.73.39a5.33272,5.33272,0,0,1-.48.24,5.08113,5.08113,0,0,1-.65991.33c-.37012.18-.74.35-1.11011.5l-.01.01c-.43994.18-.88989.36-1.34985.53a.69015.69015,0,0,1-.1001.04c-.40991.14-.83008.29-1.25.42-.08008.02-.15991.05-.24.07-.3999.12-.81006.24-1.23.34q-.68994.18-1.40991.33c-.02.01-.05.01-.07007.02-.47.09-.96.18-1.43994.25-.36011.06-.73.11-1.09009.14a.77886.77886,0,0,1-.22.03c-.18994.03-.38989.04-.58008.06-.37988.04-.76.06-1.13989.08-.51.03-1.02.04-1.54.04h-45a29.99808,29.99808,0,0,0,30-30V240.68c0-.53-.01-1.06-.02-1.59Z"/><path fill="#f8be32" d="M504.5,206.48v242c0,.52-.01,1.03-.04,1.54-.02.45-.05.89-.1001,1.33a7.939,7.939,0,0,1-.09985.84,8.22758,8.22758,0,0,1-.11011.85c-.05981.4-.11987.79-.21,1.18a6.39938,6.39938,0,0,1-.15991.76,6.8043,6.8043,0,0,1-.21.89c-.09009.39-.2.78-.32007,1.17-.08008.28-.15991.56-.26.84-.06006.19-.11987.37-.18994.55-.07007.22-.15015.44-.24.65a9.46114,9.46114,0,0,1-.3501.88,3.451,3.451,0,0,1-.13989.34,9.1787,9.1787,0,0,1-.38013.85c-.09985.22-.2.44-.31982.66-.04.09-.08008.18-.13013.27-.17993.36-.36987.71-.57007,1.06,0,.01,0,.01-.01.02-.21.37-.41992.73-.63989,1.08-.05.08-.1001.16-.1499.23q-.3003.495-.63013.96a31.065,31.065,0,0,1-2.51,3.18c-.01.01-.02.03-.03.04-.34009.37-.67993.72-1.03,1.07q-.53979.54-1.10986,1.05c-.38013.35-.76.68-1.16016,1-.35986.3-.73.59-1.10986.86-.3501.26-.71.51-1.07007.75-.37988.27-.77.51-1.16992.75-.29.19-.59009.36-.90015.53-.24.14-.48.27-.73.39a5.33272,5.33272,0,0,1-.48.24,5.08113,5.08113,0,0,1-.65991.33c-.37012.18-.74.35-1.11011.5l-.01.01c-.43994.18-.88989.36-1.34985.53a.69015.69015,0,0,1-.1001.04c-.40991.14-.83008.29-1.25.42-.08008.02-.15991.05-.24.07-.3999.12-.81006.24-1.23.34q-.68994.18-1.40991.33c-.02.01-.05.01-.07007.02-.47.09-.96.18-1.43994.25-.36011.06-.73.11-1.09009.14a.77886.77886,0,0,1-.22.03c-.18994.03-.38989.04-.58008.06-.37988.04-.76.06-1.13989.08-.51.03-1.02.04-1.54.04h-45a29.99808,29.99808,0,0,0,30-30V240.68c0-.53-.01-1.06-.02-1.59Z"/><path fill="#fecc30" d="M495.6001,468.36l1.12988.25c-.01.01-.02.03-.03.04-.34009.37-.67993.72-1.03,1.07q-.53979.54-1.10986,1.05c-.38013.35-.76.68-1.16016,1-.35986.3-.73.59-1.10986.86-.3501.26-.71.51-1.07007.75-.37988.27-.77.51-1.16992.75-.29.19-.59009.36-.90015.53-.24.14-.48.27-.73.39a5.33272,5.33272,0,0,1-.48.24,5.08113,5.08113,0,0,1-.65991.33c-.37012.18-.74.35-1.11011.5l-.01.01c-.43994.18-.88989.36-1.34985.53a.69015.69015,0,0,1-.1001.04c-.40991.14-.83008.29-1.25.42-.08008.02-.15991.05-.24.07-.3999.12-.81006.24-1.23.34q-.68994.18-1.40991.33c-.02.01-.05.01-.07007.02-.47.09-.96.18-1.43994.25-.36011.06-.73.11-1.09009.14a.77886.77886,0,0,1-.22.03c-.18994.03-.38989.04-.58008.06-.37988.04-.76.06-1.13989.08-.51.03-1.02.04-1.54.04h-45a29.99808,29.99808,0,0,0,30-30V432.26Z"/></svg>